<?xml version="1.0" encoding="utf-8"?>
<!-- Generator: Adobe Illustrator 20.0.0, SVG Export Plug-In . SVG Version: 6.00 Build 0)  -->
<svg version="1.1" id="Layer_1" xmlns="http://www.w3.org/2000/svg" xmlns:xlink="http://www.w3.org/1999/xlink" x="0px" y="0px"
	 viewBox="0 0 1931.6 497.3" style="enable-background:new 0 0 1931.6 497.3;" xml:space="preserve">
<style type="text/css">
	.st0{fill:#F1F2F2;}
	.st1{stroke:#000000;stroke-width:4;stroke-miterlimit:10;}
</style>
<rect class="st0" width="1931.6" height="497.3"/>
<g>
	<g>
		<path class="st1" d="M585.1,279.5c-6.8,10.1-19.7,16.9-32.4,16.9c-26.5,0-44.1-18.5-44.1-46.2c0-27.7,17.6-46.2,44.1-46.2
			c12.4,0,25.4,6.8,32.4,16.9v-15.1h14.2v122h-14.2V279.5z M585.1,250.1c0-20.3-12.4-33.8-30.9-33.8c-8.5,0-18,3.9-23.5,10
			c-4.6,5.2-7.8,14.8-7.8,23.8c0,20.3,12.4,33.8,31.3,33.8C572.6,283.9,585.1,270.4,585.1,250.1z"/>
		<path class="st1" d="M699.6,294.6h-14.2v-11.4c-6.2,7.8-17.4,13.2-27.7,13.2c-22.2,0-37-14.2-37-35.6v-55.1h14.2v52.6
			c0,15.3,10.1,25.6,25.3,25.6c15.1,0,25.3-10.3,25.3-25.6v-52.6h14.2V294.6z"/>
		<path class="st1" d="M716.7,250.1c0-27.7,17.4-46.2,43.4-46.2c11.9,0,24.7,6.8,31.7,16.7v-14.9H806v88.9h-14.2v-14.9
			c-6.9,10-19.7,16.7-31.7,16.7C734.1,296.4,716.7,277.9,716.7,250.1z M791.7,250.1c0-20.3-12.1-33.8-30.2-33.8
			c-18.3,0-30.6,13.5-30.6,33.8c0,20.3,12.3,33.8,30.6,33.8C779.6,283.9,791.7,270.4,791.7,250.1z"/>
		<path class="st1" d="M827.3,205.7h14.2V217c6.2-7.8,17.4-13.2,27.7-13.2c22.2,0,37,14.2,37,35.6v55.1h-14.2v-52.6
			c0-15.3-10.1-25.6-25.3-25.6c-15.1,0-25.3,10.3-25.3,25.6v52.6h-14.2V205.7z"/>
		<path class="st1" d="M933,271.8v-53.7h-14.2v-12.4H933v-33.1h14.2v33.1h26v12.4h-26v53.7c0,7.3,4.6,12.1,11.4,12.1h15.5v10.7
			c-4.4,1.1-10.3,1.8-14.6,1.8C943.6,296.4,933,286.6,933,271.8z"/>
		<path class="st1" d="M1069,294.6h-14.2v-11.4c-6.2,7.8-17.4,13.2-27.7,13.2c-22.2,0-37-14.2-37-35.6v-55.1h14.2v52.6
			c0,15.3,10.1,25.6,25.3,25.6c15.1,0,25.3-10.3,25.3-25.6v-52.6h14.2V294.6z"/>
		<path class="st1" d="M1090.4,205.7h14.2v10c5-7.1,14-11.7,22.8-11.7c9.4,0,19.6,5.5,25.3,13.5c5.7-8,16.4-13.5,26.9-13.5
			c19.6,0,32.5,11.7,32.5,29.3v61.4h-14.2v-59.9c0-11-8-18.3-19.7-18.3s-19.7,7.3-19.7,18.3v59.9h-14.2v-59.9c0-11-8-18.3-19.7-18.3
			c-11.7,0-19.7,7.3-19.7,18.3v59.9h-14.2V205.7z"/>
	</g>
	<g>
		<g>
			<polygon points="1259.3,76.4 1259.1,81.4 1234.5,80.5 1235.4,105.1 1230.4,105.3 1229.3,75.3 			"/>
		</g>
		<ellipse transform="matrix(0.7071 -0.7071 0.7071 0.7071 283.0313 948.7115)" cx="1286.7" cy="132.7" rx="31.6" ry="31.6"/>
		<g>
			<polygon points="1313.4,420.9 1313.5,415.9 1338.1,416.8 1337.2,392.2 1342.2,392 1343.3,422 			"/>
		</g>
		<ellipse transform="matrix(0.7071 -0.7071 0.7071 0.7071 118.614 1016.5984)" cx="1286.4" cy="365.1" rx="31.6" ry="31.6"/>
		<g>
			<path d="M1283.8,250.5l2.7,5.3l2.7-5.3l-2.7-8.1c-9.7-19.9-42.8-89-42.8-109.8c0-10.2,3.6-19.6,9.6-27l-4.2-4.3
				c-7.1,8.5-11.4,19.4-11.4,31.2C1237.7,158.3,1281.9,246.7,1283.8,250.5z"/>
			<path d="M1286.4,83.9c-11.7,0-22.4,4.1-30.9,11l4.2,4.3c7.3-5.9,16.6-9.4,26.7-9.4c23.6,0,42.8,19.2,42.8,42.8
				c0,6.2-2.9,16.8-7.2,29l4.6,4.6c5-14,8.5-26.3,8.5-33.6C1335.2,105.8,1313.3,83.9,1286.4,83.9z"/>
			<path d="M1291.5,247.1c5.2-10.5,20.6-42.8,31.7-71.5l-4.6-4.6c-9.8,25.6-23.7,55.5-30.4,69.2
				C1289.4,242.6,1290.4,244.9,1291.5,247.1z"/>
		</g>
		<g>
			<path d="M1286.4,414.4c11.9,0,22.8-4.3,31.3-11.4l-4.2-4.2c-7.4,6-16.8,9.7-27.1,9.7c-23.6,0-42.8-19.2-42.8-42.8
				c0-6.3,3-16.9,7.4-29.3l-4.6-4.6c-5.2,14.2-8.8,26.6-8.8,34C1237.7,392.6,1259.5,414.4,1286.4,414.4z"/>
			<path d="M1281.6,251.8c-5.6,11.4-20.6,42.6-31.5,70.4l4.6,4.6c9.9-25.5,23.9-55.1,30.6-68.8C1284,256,1282.8,253.9,1281.6,251.8z
				"/>
			<path d="M1289.1,247.8l-2.7-5.3l-2.7,5.3l2.7,8.1c9.7,19.9,42.8,89,42.8,109.8c0,10-3.4,19.2-9.2,26.4l4.3,4.2
				c0.5-0.6,0.9-1.1,1.3-1.7l2.2-3.3c4.6-7.5,7.3-16.2,7.3-25.6C1335.2,340,1291,251.6,1289.1,247.8z"/>
		</g>
		<g>
			<path d="M1312.7,154.7c-0.6,0.7-1.2,1.4-1.9,2c-0.7,0.7-1.3,1.3-2,1.9l21.9,21.9l3.9-3.9L1312.7,154.7z"/>
			<path d="M1262.6,108.6c0.7-0.7,1.3-1.3,2-1.9L1233.9,76l-3.9,3.9l30.8,30.8C1261.4,110,1262,109.3,1262.6,108.6z"/>
		</g>
		<g>
			<path d="M1312.4,387.1c-0.6,0.7-1.2,1.4-1.9,2c-0.7,0.7-1.3,1.3-2,1.9l30.3,30.3l3.9-3.9L1312.4,387.1z"/>
			<path d="M1262.4,341c0.7-0.7,1.3-1.3,2-1.9l-22.4-22.4l-3.9,3.9l22.4,22.4C1261.1,342.4,1261.7,341.7,1262.4,341z"/>
		</g>
	</g>
	<g>
		<path class="st1" d="M1379.6,279.5v15.1h-14.2v-122h14.2v48.2c6.9-10.1,19.9-16.9,32.4-16.9c26.3,0,44.1,18.5,44.1,46.2
			c0,27.7-17.8,46.2-44.1,46.2C1399.5,296.4,1386.5,289.6,1379.6,279.5z M1441.8,250.1c0-20.3-12.6-33.8-31.3-33.8
			c-18.5,0-30.9,13.5-30.9,33.8c0,20.3,12.4,33.8,30.9,33.8C1429.2,283.9,1441.8,270.4,1441.8,250.1z"/>
		<path class="st1" d="M1473.1,172.6h14.2v19.6h-14.2V172.6z M1473.1,205.7h14.2v88.9h-14.2V205.7z"/>
		<path class="st1" d="M1517.6,271.8v-53.7h-14.2v-12.4h14.2v-33.1h14.2v33.1h26v12.4h-26v53.7c0,7.3,4.6,12.1,11.4,12.1h15.5v10.7
			c-4.4,1.1-10.3,1.8-14.6,1.8C1528.3,296.4,1517.6,286.6,1517.6,271.8z"/>
	</g>
	<g>
		<path d="M351.2,250.1c0-27.7,17.4-46.2,43.4-46.2c11.9,0,24.7,6.8,31.7,16.7v-14.9h14.2v88.9h-14.2v-14.9
			c-6.9,10-19.7,16.7-31.7,16.7C368.6,296.4,351.2,277.9,351.2,250.1z M426.2,250.1c0-20.3-12.1-33.8-30.2-33.8
			c-18.3,0-30.6,13.5-30.6,33.8s12.3,33.8,30.6,33.8C414.1,283.9,426.2,270.4,426.2,250.1z"/>
	</g>
</g>
</svg>
